<?xml version="1.0" encoding="UTF-8"?>
<svg xmlns="http://www.w3.org/2000/svg" xmlns:xlink="http://www.w3.org/1999/xlink" width="20px" height="21px" viewBox="0 0 20 20" version="1.1">
<defs>
<linearGradient id="linear0" gradientUnits="userSpaceOnUse" x1="74.8244" y1="74.1057" x2="98.1275" y2="45.423" gradientTransform="matrix(0.2,0,0,0.192308,0,0)">
<stop offset="0" style="stop-color:rgb(17.254902%,81.960784%,61.960784%);stop-opacity:1;"/>
<stop offset="1" style="stop-color:rgb(23.529412%,89.019608%,58.823529%);stop-opacity:1;"/>
</linearGradient>
</defs>
<g id="surface1">
<path style=" stroke:none;fill-rule:evenodd;fill:rgb(7.45098%,15.294118%,24.705882%);fill-opacity:1;" d="M 8.980469 0.0585938 C 9.089844 -0.0117188 9.230469 -0.0117188 9.339844 0.0585938 L 17.453125 5.222656 C 17.605469 5.320312 17.648438 5.519531 17.550781 5.671875 C 17.449219 5.820312 17.246094 5.863281 17.09375 5.765625 L 9.15625 0.714844 L 1.121094 5.765625 C 0.96875 5.863281 0.761719 5.820312 0.664062 5.667969 C 0.566406 5.519531 0.609375 5.316406 0.761719 5.222656 Z M 8.980469 0.0585938 "/>
<path style=" stroke:none;fill-rule:evenodd;fill:rgb(7.45098%,15.294118%,24.705882%);fill-opacity:1;" d="M 1.21875 14.636719 C 1.21875 14.460938 1.367188 14.316406 1.546875 14.316406 L 9.5625 14.316406 C 9.746094 14.316406 9.894531 14.460938 9.894531 14.636719 C 9.894531 14.816406 9.746094 14.960938 9.5625 14.960938 L 1.546875 14.960938 C 1.367188 14.960938 1.21875 14.816406 1.21875 14.636719 Z M 1.21875 14.636719 "/>
<path style=" stroke:none;fill-rule:evenodd;fill:rgb(7.45098%,15.294118%,24.705882%);fill-opacity:1;" d="M 0.00390625 16.347656 C 0.00390625 16.171875 0.152344 16.023438 0.335938 16.023438 L 10.035156 16.023438 C 10.214844 16.023438 10.363281 16.171875 10.363281 16.347656 C 10.363281 16.527344 10.214844 16.671875 10.035156 16.671875 L 0.335938 16.671875 C 0.152344 16.671875 0.00390625 16.527344 0.00390625 16.347656 Z M 0.00390625 16.347656 "/>
<path style=" stroke:none;fill-rule:evenodd;fill:rgb(7.45098%,15.294118%,24.705882%);fill-opacity:1;" d="M 3.164062 5.894531 C 3.347656 5.894531 3.496094 6.039062 3.496094 6.21875 L 3.496094 14.375 C 3.496094 14.554688 3.347656 14.699219 3.164062 14.699219 C 2.980469 14.699219 2.832031 14.554688 2.832031 14.375 L 2.832031 6.21875 C 2.832031 6.039062 2.980469 5.894531 3.164062 5.894531 Z M 3.164062 5.894531 "/>
<path style=" stroke:none;fill-rule:evenodd;fill:rgb(7.45098%,15.294118%,24.705882%);fill-opacity:1;" d="M 15.050781 6.191406 C 15.234375 6.191406 15.382812 6.335938 15.382812 6.511719 L 15.382812 8.75 C 15.382812 8.929688 15.234375 9.074219 15.050781 9.074219 C 14.867188 9.074219 14.71875 8.929688 14.71875 8.75 L 14.71875 6.511719 C 14.71875 6.335938 14.867188 6.191406 15.050781 6.191406 Z M 15.050781 6.191406 "/>
<path style=" stroke:none;fill-rule:evenodd;fill:rgb(7.45098%,15.294118%,24.705882%);fill-opacity:1;" d="M 6.667969 5.992188 C 6.847656 5.992188 6.996094 6.136719 6.996094 6.316406 L 6.996094 14.441406 C 6.996094 14.621094 6.847656 14.765625 6.667969 14.765625 C 6.484375 14.765625 6.335938 14.621094 6.335938 14.441406 L 6.335938 6.316406 C 6.335938 6.136719 6.484375 5.992188 6.667969 5.992188 Z M 6.667969 5.992188 "/>
<path style=" stroke:none;fill-rule:evenodd;fill:rgb(7.45098%,15.294118%,24.705882%);fill-opacity:1;" d="M 11.546875 6.191406 C 11.730469 6.191406 11.878906 6.335938 11.878906 6.511719 L 11.878906 9.738281 C 11.878906 9.914062 11.730469 10.058594 11.546875 10.058594 C 11.367188 10.058594 11.21875 9.914062 11.21875 9.738281 L 11.21875 6.511719 C 11.21875 6.335938 11.367188 6.191406 11.546875 6.191406 Z M 11.546875 6.191406 "/>
<path style=" stroke:none;fill-rule:evenodd;fill:url(#linear0);" d="M 15.542969 9.636719 L 19.871094 10.972656 C 20.003906 11.035156 20.109375 11.164062 20.109375 11.289062 L 20.109375 14.625 C 20.109375 18.277344 15.578125 19.613281 15.542969 19.613281 L 15.339844 19.613281 C 15.269531 19.613281 10.773438 18.3125 10.773438 14.625 L 10.773438 11.289062 C 10.773438 11.128906 10.875 11.003906 11.011719 10.972656 L 15.304688 9.636719 C 15.40625 9.605469 15.476562 9.605469 15.542969 9.636719 Z M 17.859375 13.699219 C 17.988281 13.578125 17.988281 13.378906 17.855469 13.257812 C 17.726562 13.136719 17.511719 13.140625 17.382812 13.261719 L 15.066406 15.453125 L 13.769531 14.246094 C 13.640625 14.125 13.425781 14.125 13.296875 14.246094 C 13.164062 14.367188 13.164062 14.566406 13.296875 14.6875 L 14.828125 16.117188 C 14.894531 16.175781 14.976562 16.207031 15.066406 16.207031 C 15.15625 16.207031 15.242188 16.175781 15.304688 16.117188 Z M 17.859375 13.699219 "/>
<path style=" stroke:none;fill-rule:evenodd;fill:rgb(7.45098%,15.294118%,24.705882%);fill-opacity:1;" d="M 1.890625 6.183594 C 1.890625 6.003906 2.039062 5.859375 2.222656 5.859375 L 15.960938 5.859375 C 16.140625 5.859375 16.289062 6.003906 16.289062 6.183594 C 16.289062 6.363281 16.140625 6.507812 15.960938 6.507812 L 2.222656 6.507812 C 2.039062 6.507812 1.890625 6.363281 1.890625 6.183594 Z M 1.890625 6.183594 "/>
</g>
</svg>
